<?xml version="1.0" encoding="utf-8"?>
<!-- Uploaded to: SVG Repo, www.svgrepo.com, Generator: SVG Repo Mixer Tools -->
<svg fill="#000000" height="800px" width="800px" version="1.1" id="Layer_1" xmlns="http://www.w3.org/2000/svg" xmlns:xlink="http://www.w3.org/1999/xlink" 
	 viewBox="0 0 256 256" xml:space="preserve">
<g>
	<circle cx="128" cy="82.7" r="15.1"/>
	<path d="M128,13.1c-10.9,0-19.8,8.9-19.8,19.8c0,10.9,8.9,19.8,19.8,19.8s19.8-8.9,19.8-19.8C147.8,21.9,138.9,13.1,128,13.1z
		 M119.2,24.9c1.9,0,3.4,1.5,3.4,3.4c0,1.9-1.5,3.4-3.4,3.4c-1.9,0-3.4-1.5-3.4-3.4C115.8,26.5,117.3,24.9,119.2,24.9z M139.2,40.1
		c-2,4.4-6.4,7.3-11.2,7.3s-9.2-2.8-11.2-7.3c-0.4-1,0-2.1,1-2.5c1-0.4,2.1,0,2.5,1c1.4,3,4.4,5,7.7,5s6.4-2,7.7-5
		c0.4-1,1.6-1.4,2.5-1C139.2,38,139.6,39.2,139.2,40.1z M137.3,31.7c-1.9,0-3.4-1.5-3.4-3.4c0-1.9,1.5-3.4,3.4-3.4
		c1.9,0,3.4,1.5,3.4,3.4C140.7,30.2,139.1,31.7,137.3,31.7z"/>
	<path d="M203,60.4v-55H53.2v55h14.5v8.3c-0.3,0.2-0.6,0.5-0.9,0.8c-2.6,2.6-2.6,6.8,0,9.3l40.4,40.6v120.2c0,5.3,4.2,9.4,9.4,9.4
		c5.3,0,9.4-4.2,9.4-9.4v-66.2c0-1.1,0.8-1.9,1.9-1.9c1.1,0,1.9,0.8,1.9,1.9v66.2c0,5.3,4.2,9.4,9.5,9.4c5.3,0,9.4-4.2,9.4-9.4
		V119.4l40.6-40.4c2.5-2.6,2.5-6.8,0-9.4c-0.3-0.3-0.7-0.6-1.1-0.9v-8.2H203z M183,67.7c-1,0.3-2,0.9-2.8,1.7l-28.9,28.7
		c-2.3,2.3-5.3,3.4-8.1,3.4h-30.2c-2.8,0-5.9-1.1-8.1-3.4L76,69.5c-0.9-0.9-1.9-1.4-3-1.7v-7.4H183V67.7z M58.2,55.4v-45H198v45
		H58.2z"/>
</g>
</svg>