<?xml version="1.0" encoding="iso-8859-1"?>
<!-- Uploaded to: SVG Repo, www.svgrepo.com, Generator: SVG Repo Mixer Tools -->
<!DOCTYPE svg PUBLIC "-//W3C//DTD SVG 1.1//EN" "http://www.w3.org/Graphics/SVG/1.1/DTD/svg11.dtd">
<svg fill="#000000" version="1.1" id="Capa_1" xmlns="http://www.w3.org/2000/svg" xmlns:xlink="http://www.w3.org/1999/xlink" 
	 width="800px" height="800px" viewBox="0 0 32.02 32.02" xml:space="preserve"
	>
<g>
	<g>
		<circle cx="11.458" cy="7.939" r="2.264"/>
		<path d="M13.071,19.991v2.025v5.495H1.941V4.337H13.07v0.938c0.914,0.549,1.49,1.536,1.49,2.663c0,1.125-0.577,2.112-1.49,2.663
			v1.697c0.286-0.061,0.573-0.148,0.894-0.264c0.267-0.095,0.592-0.147,0.818-0.147V3.454c0-0.497-0.339-0.886-0.838-0.886H0.995
			C0.498,2.567,0,2.957,0,3.454v25.067c0,0.496,0.498,0.932,0.995,0.932h12.95c0.499,0,0.838-0.436,0.838-0.932v-6.439v-1.666
			v-4.063c-0.456,0.115-1.141,0.263-1.712,0.354V19.991z"/>
		<polygon points="5.937,23.682 5.937,19.811 5.937,8.958 5.937,5.365 2.968,5.365 2.968,26.239 		"/>
		<path d="M14.302,12.876c-1.006,0.36-2.379,0.669-3.206,0.103c-0.353-0.241-0.572-0.615-0.71-0.979
			c0.107-0.359,0.124-0.744,0.04-1.113c-0.076-0.329-0.227-0.647-0.46-0.92C9.606,9.542,9.117,9.297,8.61,9.23
			C8.152,9.173,7.647,9.259,7.249,9.497v9.997c0.058-0.025,0.081-0.056,0.115-0.086c0.88,1.026,1.766,2.762,1.233,5.366
			c-0.143,0.702,0.313,1.392,1.016,1.534c0.088,0.018,0.178,0.025,0.264,0.025c0.604,0,1.146-0.426,1.273-1.039
			c0.895-4.379-1.204-7.33-2.987-8.73c0.123-0.906,0.373-1.631,0.639-2.182c0.221,0.26,0.485,0.508,0.796,0.725
			c0.756,0.527,1.651,0.787,2.681,0.787c0.562,0,2.336-0.385,2.76-0.521c0.476-0.164,0.715-0.393,0.859-0.674
			c0.179-0.477,0.094-0.976,0.094-0.976C15.846,12.833,14.978,12.633,14.302,12.876z"/>
		<path d="M23.268,16.901c-0.152,0-0.266,0.012-0.266,0.021v0.772h0.206c0.313,0,0.51-0.159,0.51-0.403
			C23.718,17.036,23.557,16.905,23.268,16.901z"/>
		<path d="M30.745,10.102h-3.277c-0.168-1.468-0.87-3.168-1.94-3.871c-0.125-0.471-0.533-0.826-1.043-0.826
			c-0.508,0-0.918,0.354-1.043,0.825c-1.07,0.703-1.772,2.402-1.94,3.871h-3.276c-0.705,0-1.274,0.569-1.274,1.274v13.55
			c0,0.703,0.569,1.273,1.274,1.273h12.521c0.702,0,1.274-0.57,1.274-1.273V11.375C32.02,10.671,31.451,10.102,30.745,10.102z
			 M23.727,7.289c0.196,0.19,0.463,0.31,0.758,0.31s0.562-0.12,0.76-0.31c0.576,0.563,1.072,1.67,1.216,2.813h-3.95
			C22.652,8.958,23.148,7.852,23.727,7.289z M20.834,19.235h-0.628v-1.143H19.18v1.143h-0.629v-2.74h0.629v1.026h1.028v-1.026h0.626
			V19.235z M21.919,19.235h-0.628v-2.74h0.628V19.235z M23.795,19.235c-0.048-0.059-0.109-0.303-0.191-0.643
			c-0.074-0.35-0.193-0.442-0.449-0.442h-0.147v1.085h-0.628v-2.741c0.173-0.032,0.482-0.057,0.818-0.057
			c0.41,0,0.689,0.06,0.889,0.218c0.165,0.133,0.264,0.325,0.264,0.58c0,0.354-0.256,0.596-0.483,0.682v0.015
			c0.171,0.077,0.288,0.269,0.36,0.522c0.084,0.312,0.16,0.67,0.213,0.785L23.795,19.235z M25.286,19.235h-0.628v-2.74h0.628V19.235
			z M28.025,19.235h-0.649l-0.592-1.072c-0.163-0.297-0.347-0.654-0.481-0.979l-0.015,0.002c0.017,0.363,0.024,0.754,0.024,1.208
			v0.842h-0.57v-2.74h0.729l0.575,1.002c0.163,0.291,0.328,0.651,0.451,0.939h0.013c-0.042-0.346-0.056-0.757-0.056-1.17v-0.771
			h0.571V19.235z M30.768,19.101c-0.174,0.062-0.555,0.156-0.918,0.156c-0.506,0-0.869-0.129-1.123-0.375
			c-0.254-0.236-0.394-0.602-0.389-1.006c0.004-0.922,0.676-1.447,1.583-1.447c0.356,0,0.634,0.068,0.771,0.137l-0.133,0.5
			c-0.15-0.064-0.341-0.119-0.646-0.119c-0.522,0-0.916,0.295-0.916,0.896c0,0.572,0.368,0.908,0.881,0.908
			c0.144,0,0.261-0.018,0.317-0.041v-0.56h-0.457v-0.456h1.027v1.406H30.768z"/>
	</g>
</g>
</svg>